<?xml version="1.0" encoding="UTF-8"?>
<svg version="1.1" xmlns="http://www.w3.org/2000/svg" width="512" height="512">
<path d="M0 0 C8.20837115 6.48547087 15.73426842 13.9540666 22.1875 22.1875 C25.06518878 19.3374282 27.89397923 16.45206134 30.68359375 13.515625 C38.86009618 5.00038324 46.80496331 -2.14929817 57.1875 -7.8125 C58.55068359 -8.55886719 58.55068359 -8.55886719 59.94140625 -9.3203125 C78.56855198 -18.59224495 102.30919989 -20.38498065 122.11328125 -13.94921875 C123.12777344 -13.57410156 124.14226562 -13.19898438 125.1875 -12.8125 C126.17105469 -12.48894531 127.15460938 -12.16539063 128.16796875 -11.83203125 C133.04704147 -10.10710655 136.72284079 -8.62978846 139.1875 -3.8125 C139.875 -0.5 139.875 -0.5 139.1875 3.1875 C134.79155058 9.30552757 128.96001199 14.54926661 123.62890625 19.84375 C122.83975327 20.63148804 122.05060028 21.41922607 121.23753357 22.23083496 C118.74404988 24.71877102 116.24709216 27.20318624 113.75 29.6875 C112.04729413 31.3851841 110.34481793 33.08309858 108.64257812 34.78125 C104.49353588 38.9193328 100.34164424 43.05453935 96.1875 47.1875 C97.46987549 47.24663574 98.75225098 47.30577148 100.07348633 47.36669922 C101.78467747 47.45000026 103.4958586 47.53350732 105.20703125 47.6171875 C106.04882935 47.65545654 106.89062744 47.69372559 107.75793457 47.7331543 C131.58818089 48.92091881 152.03451779 58.51112445 168.39453125 75.94921875 C175.88954846 84.36662035 184.2442214 96.19687582 185.4375 107.5703125 C185.23085878 111.07029819 184.47371286 112.90206665 181.99690247 115.37213135 C178.72681893 117.48518109 176.97319271 117.70088364 173.11206055 117.73339844 C171.91119308 117.75311707 170.71032562 117.77283569 169.47306824 117.79315186 C168.18644791 117.79438049 166.89982758 117.79560913 165.57421875 117.796875 C164.23612982 117.81186515 162.89805933 117.82859407 161.56001282 117.84698486 C158.05015183 117.89057816 154.54054039 117.91063919 151.03045654 117.92572021 C147.44398288 117.94532065 143.85777758 117.98728719 140.27148438 118.02734375 C133.24359095 118.10255828 126.21570757 118.15290253 119.1875 118.1875 C119.66530411 118.66095352 120.14310822 119.13440704 120.63539124 119.62220764 C121.57782936 120.55957008 121.57782936 120.55957008 122.53930664 121.51586914 C123.16148575 122.13369766 123.78366486 122.75152618 124.42469788 123.38807678 C138.5790811 137.83650832 147.38645709 157.99454326 148.1875 178.1875 C148.26484375 179.40373047 148.26484375 179.40373047 148.34375 180.64453125 C148.82155754 193.92359926 146.23273268 212.25346499 137.73046875 223.03515625 C134.82067757 225.20829144 131.68581278 225.6024693 128.1875 225.1875 C122.22681645 221.87131554 117.3365439 216.61592486 112.578125 211.80517578 C111.86494614 211.09228897 111.15176727 210.37940216 110.41697693 209.64491272 C108.08570607 207.31226032 105.76157944 204.97262804 103.4375 202.6328125 C101.81269422 201.00427241 100.18744321 199.37617641 98.56176758 197.74850464 C94.30278169 193.48191523 90.04983869 189.20935205 85.79815674 184.93548584 C81.45112634 180.56792613 77.09836544 176.20608567 72.74609375 171.84375 C64.22096734 163.29723161 55.70221854 154.7443867 47.1875 146.1875 C46.86490388 147.61406423 46.54384883 149.04097699 46.22343445 150.46803284 C46.04447978 151.26260674 45.86552511 152.05718065 45.68114758 152.87583256 C45.02865015 155.93136676 44.57165556 158.99525351 44.14453125 162.08984375 C43.96164551 163.37487793 43.77875977 164.65991211 43.59033203 165.98388672 C43.49480042 166.65740173 43.3992688 167.33091675 43.30084229 168.02484131 C39.371779 195.45335393 33.67896058 222.50637502 26.1875 249.1875 C25.85524414 250.37230957 25.52298828 251.55711914 25.18066406 252.77783203 C11.69521847 300.32879512 -7.29440541 347.36597561 -32.125 390.1875 C-33.8894788 393.10262594 -33.8894788 393.10262594 -34.8125 396.1875 C-33.96790411 396.41337862 -33.12330822 396.63925724 -32.25311852 396.87198067 C-28.94326283 398.13750288 -26.61618749 399.77920703 -23.78327215 401.85810673 C-9.73654074 411.43524389 7.3998672 409.57920958 23.65664625 409.4326992 C28.34357658 409.40157022 33.03023644 409.4287635 37.71717834 409.4485321 C45.81859573 409.47487958 53.91930388 409.46505693 62.02067947 409.42999649 C73.73346575 409.37936022 85.44572204 409.38431504 97.15857987 409.40242384 C116.16605921 409.43031953 135.17322695 409.41385014 154.18066406 409.36914062 C172.63415421 409.32582989 191.08747277 409.30362487 209.54101562 409.30957031 C210.68030591 409.30993007 211.81959619 409.31028983 212.99341042 409.3106605 C218.70943846 409.31259491 224.42546624 409.31494179 230.14149404 409.31749368 C277.4902938 409.33809951 324.8388092 409.28581691 372.1875 409.1875 C372.1875 415.1275 372.1875 421.0675 372.1875 427.1875 C196.9575 427.6825 196.9575 427.6825 18.1875 428.1875 C22.8075 431.8175 27.4275 435.4475 32.1875 439.1875 C34.68410774 441.36872142 37.11277576 443.52545166 39.5 445.8125 C40.10336182 446.38387695 40.70672363 446.95525391 41.32836914 447.54394531 C43.29191298 449.4145596 45.24180177 451.29833537 47.1875 453.1875 C47.90969727 453.8877832 48.63189453 454.58806641 49.37597656 455.30957031 C65.63301049 471.14452633 65.63301049 471.14452633 72.1875 480.1875 C70.54275469 481.88208607 68.88219849 483.54364246 67.1875 485.1875 C66.61 485.74953125 66.0325 486.3115625 65.4375 486.890625 C64.839375 487.44234375 64.24125 487.9940625 63.625 488.5625 C63.06683594 489.08585937 62.50867188 489.60921875 61.93359375 490.1484375 C60.1875 491.1875 60.1875 491.1875 58.29467773 490.96191406 C55.72770569 490.01851987 54.57077583 488.84614569 52.7265625 486.8359375 C52.08976563 486.14886719 51.45296875 485.46179688 50.796875 484.75390625 C50.14203125 484.03074219 49.4871875 483.30757813 48.8125 482.5625 C48.16539062 481.86253906 47.51828125 481.16257812 46.8515625 480.44140625 C43.81444397 477.14098914 40.84072404 473.80039143 37.9453125 470.375 C35.91185313 467.98457825 33.85093128 465.830812 31.4375 463.8125 C29.30088001 462.00275098 27.19440713 460.19400864 25.15625 458.2734375 C5.33754488 439.64106332 -19.5534208 422.52980015 -44.8125 412.1875 C-45.2156543 412.82252441 -45.61880859 413.45754883 -46.03417969 414.11181641 C-47.87626027 417.01248494 -49.71937105 419.91249751 -51.5625 422.8125 C-52.51382813 424.31103516 -52.51382813 424.31103516 -53.484375 425.83984375 C-56.54614337 430.65575024 -59.617136 435.45900681 -62.8125 440.1875 C-66.88703229 439.56445259 -69.70789701 437.42217379 -73.0625 435.125 C-74.14015625 434.39152344 -75.2178125 433.65804688 -76.328125 432.90234375 C-77.14796875 432.33644531 -77.9678125 431.77054687 -78.8125 431.1875 C-77.54747819 427.78954498 -76.09772297 424.86728242 -74.08984375 421.8515625 C-73.55609131 421.04275635 -73.02233887 420.2339502 -72.47241211 419.40063477 C-71.90401611 418.54655029 -71.33562012 417.69246582 -70.75 416.8125 C-65.6403118 409.03682654 -60.66680889 401.22012585 -55.97998047 393.18261719 C-55.17225249 391.80228406 -54.35835928 390.42554698 -53.53955078 389.05175781 C-9.23561377 314.69303122 17.49730794 230.02065153 27.1875 144.1875 C27.30416016 143.24825684 27.42082031 142.30901367 27.54101562 141.34130859 C27.83408912 138.93783624 28.0838881 136.53532966 28.3125 134.125 C28.43882812 132.87589844 28.56515625 131.62679687 28.6953125 130.33984375 C28.13556778 126.86512075 27.74304832 126.41518605 25.1796875 124.25390625 C23.69855469 123.23103516 23.69855469 123.23103516 22.1875 122.1875 C18.36585648 124.69891392 15.02145202 127.5625962 13.59637451 132.0480957 C12.63127956 136.73344249 12.2393246 141.49330197 11.84820557 146.25558472 C11.4648092 150.86226449 10.95535332 155.45535195 10.45703125 160.05078125 C10.30859772 161.45324852 10.30859772 161.45324852 10.15716553 162.88404846 C5.21531836 208.22974461 -8.83794337 253.82694229 -27.8125 295.1875 C-28.31894043 296.29383789 -28.82538086 297.40017578 -29.34716797 298.54003906 C-43.0185427 328.15503918 -59.43839874 355.94196144 -78.8125 382.1875 C-79.93011719 383.71697266 -79.93011719 383.71697266 -81.0703125 385.27734375 C-86.39081839 392.47949196 -92.01821901 399.36500631 -97.8125 406.1875 C-101.99488834 405.63980629 -104.41118545 403.28861111 -107.5625 400.625 C-108.54734375 399.79871094 -109.5321875 398.97242188 -110.546875 398.12109375 C-111.29453125 397.48300781 -112.0421875 396.84492188 -112.8125 396.1875 C-112.3175 395.40375 -111.8225 394.62 -111.3125 393.8125 C-109.64712035 391.40197673 -109.64712035 391.40197673 -109.8125 389.1875 C-113.16614627 388.5389451 -116.52050551 387.8941521 -119.875 387.25 C-120.81794922 387.06759766 -121.76089844 386.88519531 -122.73242188 386.69726562 C-127.74843016 385.73600968 -132.74874423 384.85470776 -137.8125 384.1875 C-137.67110519 381.93721671 -137.52421997 379.68727794 -137.375 377.4375 C-137.29378906 376.18453125 -137.21257812 374.9315625 -137.12890625 373.640625 C-136.88530246 370.98203545 -136.49902567 368.73815055 -135.8125 366.1875 C-126.28998206 366.6428595 -117.28793061 368.1464277 -108 370.25 C-106.72318359 370.53166016 -105.44636719 370.81332031 -104.13085938 371.10351562 C-101.02289369 371.79029456 -97.91695334 372.4850465 -94.8125 373.1875 C-94.43557007 372.37599487 -94.43557007 372.37599487 -94.05102539 371.5480957 C-92.552444 368.69184035 -90.80347688 366.09011225 -88.99609375 363.41796875 C-88.22859515 362.27851255 -87.4612676 361.13894113 -86.6940918 359.99926758 C-86.29475433 359.40755768 -85.89541687 358.81584778 -85.48397827 358.20620728 C-78.63307921 348.03956455 -71.81816457 337.88509001 -65.8125 327.1875 C-65.34070313 326.3531543 -64.86890625 325.51880859 -64.3828125 324.65917969 C-34.63435137 271.7668598 -14.02598647 212.74580843 -7.8125 152.1875 C-8.225 152.60523682 -8.6375 153.02297363 -9.0625 153.45336914 C-10.97638778 155.38835027 -12.89441671 157.31917801 -14.8125 159.25 C-15.46089844 159.90677734 -16.10929687 160.56355469 -16.77734375 161.24023438 C-17.42832031 161.89443359 -18.07929687 162.54863281 -18.75 163.22265625 C-19.33652344 163.8144165 -19.92304687 164.40617676 -20.52734375 165.01586914 C-22.42596667 166.82016945 -24.35990771 168.51310774 -26.3515625 170.21118164 C-31.38997447 174.59628446 -36.01820438 179.37427022 -40.6736145 184.15684128 C-43.40457912 186.95746783 -46.15308385 189.74083395 -48.8984375 192.52734375 C-52.37072852 196.05361258 -55.83757999 199.5847747 -59.28613281 203.13427734 C-62.09410897 206.02352536 -64.91900911 208.89523087 -67.75588989 211.75609207 C-68.82748734 212.84306766 -69.89278465 213.93629376 -70.9513855 215.03593063 C-80.23496275 224.66918843 -80.23496275 224.66918843 -85.328125 225.46337891 C-88.85650533 225.18401583 -90.88371611 224.66361699 -93.4375 222.14453125 C-103.9107056 207.23806532 -104.66834149 185.37130161 -102.03857422 167.92016602 C-98.45441228 147.6788732 -88.09733559 132.47233559 -73.8125 118.1875 C-74.55530212 118.17941315 -75.29810425 118.17132629 -76.06341553 118.16299438 C-83.06720437 118.08501982 -90.0708006 117.99772058 -97.07433701 117.89997292 C-100.67484441 117.85004924 -104.27532303 117.80371905 -107.87597656 117.765625 C-111.35149166 117.72872226 -114.82676368 117.68234914 -118.30207062 117.62943649 C-120.27175455 117.60191352 -122.24156728 117.58417292 -124.21136475 117.56655884 C-125.41230774 117.54668915 -126.61325073 117.52681946 -127.85058594 117.50634766 C-128.90759705 117.49302399 -129.96460815 117.47970032 -131.0536499 117.4659729 C-133.82895055 117.18583951 -135.47540471 116.67504279 -137.8125 115.1875 C-140.37877494 111.72302883 -140.09177663 108.37241793 -139.8125 104.1875 C-138.95059555 101.34328643 -137.74192249 98.72893809 -136.4375 96.0625 C-136.08026855 95.32257813 -135.72303711 94.58265625 -135.35498047 93.8203125 C-125.64662141 74.46200307 -108.5460983 59.33387772 -88.0703125 52.1796875 C-78.94795945 49.40141691 -70.33910725 48.02758373 -60.8515625 47.609375 C-59.97862549 47.56731934 -59.10568848 47.52526367 -58.20629883 47.48193359 C-56.07521863 47.37982845 -53.94388164 47.28310639 -51.8125 47.1875 C-52.23543839 46.76678223 -52.65837677 46.34606445 -53.09413147 45.91259766 C-57.52637726 41.5026084 -61.9549934 37.08899757 -66.3815918 32.67333984 C-68.03041744 31.02951896 -69.68014251 29.38659971 -71.33081055 27.74462891 C-73.71384347 25.37383142 -76.09353996 22.99972709 -78.47265625 20.625 C-79.20210953 19.90070801 -79.93156281 19.17641602 -80.68312073 18.43017578 C-84.10925077 15.00441532 -87.49120784 11.53890448 -90.77124023 7.97265625 C-91.33407211 7.36429932 -91.89690399 6.75594238 -92.47679138 6.12915039 C-94.08568629 3.79038326 -94.50248445 1.99606691 -94.8125 -0.8125 C-94.08623198 -4.48061316 -93.53245508 -6.25198134 -90.5546875 -8.5703125 C-60.84635152 -22.73641276 -26.29637142 -19.97800331 0 0 Z M-68.8125 3.1875 C-61.77608291 11.61424014 -54.03896848 19.36148749 -46.32919502 27.16743374 C-43.89454853 29.63249453 -41.46836989 32.10468605 -39.06152344 34.59692383 C-24.80820188 49.59109062 -24.80820188 49.59109062 -7.06567383 59.80493164 C-2.9081499 61.57184031 0.26428789 64.03076561 3.68359375 66.9375 C4.98974574 68.29403358 4.98974574 68.29403358 6.1875 68.1875 C6.36925781 67.08792969 6.55101562 65.98835938 6.73828125 64.85546875 C6.99205309 63.36195632 7.24596933 61.86846842 7.5 60.375 C7.62737549 59.59688965 7.75475098 58.8187793 7.88598633 58.01708984 C8.65156274 53.54048494 9.72964485 49.56196988 11.375 45.3125 C12.33293597 41.95718988 12.40820788 40.68605697 10.98046875 37.4609375 C8.90816694 34.46433 6.67149492 31.85269819 4.1875 29.1875 C2.91519531 27.79144531 2.91519531 27.79144531 1.6171875 26.3671875 C-7.45541486 16.87137336 -17.3659421 8.70225429 -29.8125 4.1875 C-30.68777344 3.86910156 -31.56304687 3.55070312 -32.46484375 3.22265625 C-39.00073501 1.23347195 -45.34385077 0.91266276 -52.125 0.875 C-53.39718384 0.86666138 -53.39718384 0.86666138 -54.69506836 0.8581543 C-59.7655312 0.91653872 -64.0071994 1.55979359 -68.8125 3.1875 Z M47.1875 23.1875 C46.30320313 23.99058594 45.41890625 24.79367188 44.5078125 25.62109375 C33.79767251 35.53367012 24.77749428 50.6961158 24.07397461 65.59106445 C24.07921143 66.402771 24.08444824 67.21447754 24.08984375 68.05078125 C24.09306641 68.93701172 24.09628906 69.82324219 24.09960938 70.73632812 C24.10798828 71.64833984 24.11636719 72.56035156 24.125 73.5 C24.12951172 74.43134766 24.13402344 75.36269531 24.13867188 76.32226562 C24.15040766 78.61074373 24.16682637 80.89908808 24.1875 83.1875 C26.69891476 80.69846862 29.17913452 78.19647758 31.58984375 75.609375 C39.95493037 66.79316661 49.01511055 60.40930562 60.1875 55.5 C69.62068729 50.99176993 76.57863456 42.42764288 83.265625 34.5859375 C88.72019903 28.30813175 94.7267577 22.54336642 100.625 16.6875 C101.8459369 15.47158886 103.06664192 14.25544484 104.28710938 13.0390625 C107.25124013 10.08585034 110.21848958 7.13580602 113.1875 4.1875 C112.6925 3.1975 112.6925 3.1975 112.1875 2.1875 C88.35983816 -5.20239115 63.57252006 6.59241558 47.1875 23.1875 Z M-108.8125 87.1875 C-112.02866457 90.98109704 -114.61956562 94.72949524 -116.8125 99.1875 C-107.94480554 99.30420456 -99.07738211 99.39262051 -90.2090826 99.44656086 C-86.08954865 99.47247137 -81.97054642 99.50752154 -77.85131836 99.56469727 C-73.86362678 99.61969034 -69.87644113 99.64905928 -65.88839912 99.66188622 C-64.37957371 99.67100724 -62.87077075 99.68881198 -61.36216545 99.71615028 C-50.43411454 99.9060065 -42.0451986 98.04821716 -31.8125 94.1875 C-24.10081789 92.04975056 -16.6570333 91.94203031 -8.6875 92.0625 C-7.54023438 92.07152344 -6.39296875 92.08054687 -5.2109375 92.08984375 C-2.41123252 92.11317462 0.38801695 92.14590768 3.1875 92.1875 C-5.05226238 77.96401305 -19.69188132 71.52495747 -34.8125 67.1875 C-60.86150215 61.05154938 -90.3405393 67.40351219 -108.8125 87.1875 Z M45.1875 87.1875 C44.60355469 87.72761719 44.01960937 88.26773438 43.41796875 88.82421875 C41.96415943 90.12887033 41.96415943 90.12887033 42.1875 92.1875 C43.16021851 92.16393433 43.16021851 92.16393433 44.15258789 92.13989258 C73.76855393 91.51846859 73.76855393 91.51846859 83.13574219 96.15100098 C91.05707695 99.94943763 98.89961412 99.70025406 107.4765625 99.578125 C109.03167996 99.5706495 110.58680694 99.56496277 112.14193726 99.56097412 C116.20272581 99.54582051 120.26292718 99.50663004 124.32348633 99.4621582 C128.47989971 99.42098138 132.63640948 99.40291563 136.79296875 99.3828125 C144.92474635 99.34012351 153.0560498 99.27200002 161.1875 99.1875 C156.31871877 86.59551051 145.9894459 78.88239174 134.3125 72.875 C133.37772827 72.38664673 133.37772827 72.38664673 132.42407227 71.88842773 C121.99499327 66.7768636 111.42867606 65.65282946 99.9375 65.75 C98.66060303 65.75902344 97.38370605 65.76804687 96.06811523 65.77734375 C75.35048337 66.15692756 59.95638489 72.47664609 45.1875 87.1875 Z M-60.8125 131.1875 C-61.61558594 131.91839844 -62.41867188 132.64929688 -63.24609375 133.40234375 C-75.50334759 144.80987462 -84.20539278 160.91585378 -84.98046875 177.859375 C-84.99505649 179.21868732 -85.00127882 180.57811001 -85 181.9375 C-85.00064453 182.64326172 -85.00128906 183.34902344 -85.00195312 184.07617188 C-84.9481303 189.40463157 -84.27152085 194.08092703 -82.8125 199.1875 C-75.04364595 192.86191637 -68.17278367 185.61039993 -61.13989258 178.49438477 C-59.44046304 176.77666367 -57.73787529 175.0621157 -56.03515625 173.34765625 C-55.52968765 172.83388931 -55.02421906 172.32012238 -54.50343323 171.79078674 C-51.80312892 169.07254766 -49.03881133 166.49444238 -46.12866211 164.00146484 C-40.66823446 159.27164438 -35.62279945 154.12204564 -30.53125 149.00390625 C-29.46673228 147.93751915 -28.40199038 146.87135581 -27.33703613 145.80540466 C-24.55986167 143.02444593 -21.78570575 140.24049556 -19.01220703 137.45587158 C-16.17144362 134.6048052 -13.32778128 131.75663331 -10.484375 128.90820312 C-4.9242717 123.33743482 0.63264018 117.76349681 6.1875 112.1875 C-16.76230242 100.30714122 -44.63040566 115.18748267 -60.8125 131.1875 Z M39.1875 111.1875 C43.647666 116.52536595 48.35378076 121.50208672 53.27246094 126.41772461 C54.06016373 127.20878601 54.84786652 127.99984741 55.65943909 128.81488037 C58.24428855 131.40917215 60.8328396 133.99972985 63.421875 136.58984375 C65.22462213 138.39580545 67.02729437 140.20184192 68.82989502 142.00794983 C72.59722259 145.78124986 76.36657432 149.55251368 80.13720703 153.32250977 C84.49874315 157.68344242 88.8546401 162.04995295 93.20799994 166.41904634 C97.40251072 170.62817566 101.60250782 174.83179973 105.80463409 179.0333271 C107.59090814 180.82078483 109.37555256 182.60987258 111.15856171 184.40058708 C113.64105676 186.89281365 116.12972741 189.378703 118.62011719 191.86303711 C119.36091019 192.60944962 120.10170319 193.35586212 120.86494446 194.12489319 C121.54056931 194.79632355 122.21619415 195.46775391 122.91229248 196.15953064 C123.49997784 196.74776076 124.08766319 197.33599089 124.6931572 197.94204617 C126.11934191 199.40091181 126.11934191 199.40091181 128.1875 199.1875 C131.754901 180.36308939 129.90318233 162.38410588 118.9375 146.0625 C105.92639393 128.50872327 89.86591257 113.74996911 67.828125 109.46484375 C58.23023186 108.45678101 48.49056641 108.48115341 39.1875 111.1875 Z " fill="#000000" transform="translate(139.8125,16.8125)"/>
<path d="M0 0 C15.46359682 14.60807279 25.76310167 35.06271938 26.40234375 56.51171875 C26.74076627 80.10764392 21.55494595 98.73109575 7.19921875 117.54296875 C6.73257813 118.19394531 6.2659375 118.84492188 5.78515625 119.515625 C-7.15371677 136.3044081 -29.16602295 145.51789917 -49.56640625 148.2265625 C-70.82557467 150.30626376 -92.486842 145.25912444 -109.80078125 132.54296875 C-110.70183594 131.8984375 -111.60289062 131.25390625 -112.53125 130.58984375 C-129.37344241 117.76222188 -140.65156777 98.09770606 -144.37890625 77.3203125 C-147.01883757 53.68314962 -143.05068905 31.0398245 -128.80078125 11.54296875 C-125.96375708 8.034991 -122.96407974 4.75846688 -119.80078125 1.54296875 C-119.04023438 0.76953125 -118.2796875 -0.00390625 -117.49609375 -0.80078125 C-105.42066561 -12.36151901 -89.3430735 -20.08214771 -72.80078125 -22.45703125 C-72.06085938 -22.57949219 -71.3209375 -22.70195312 -70.55859375 -22.828125 C-44.4124756 -26.39350475 -19.53872912 -17.14067031 0 0 Z M-108.80078125 16.54296875 C-109.44015625 17.15785156 -110.07953125 17.77273438 -110.73828125 18.40625 C-122.47809692 30.64395964 -127.48054315 48.37602148 -127.19897461 64.98681641 C-126.50912797 82.50177834 -119.27924407 99.12364556 -106.80078125 111.54296875 C-92.58282499 123.96642568 -75.9271008 130.99205911 -56.953125 130.7578125 C-41.01706251 129.67171159 -28.2093808 124.35630565 -15.80078125 114.54296875 C-14.76953125 113.80046875 -13.73828125 113.05796875 -12.67578125 112.29296875 C0.47707663 99.71197425 7.99307974 83.0164689 8.55126953 64.87915039 C8.7363013 46.04331024 2.48087053 28.2196139 -10.80078125 14.54296875 C-39.07404928 -12.9137428 -81.38553605 -10.36287156 -108.80078125 16.54296875 Z " fill="#000000" transform="translate(434.80078125,261.45703125)"/>
<path d="M0 0 C56.43 0 112.86 0 171 0 C171 5.94 171 11.88 171 18 C114.57 18 58.14 18 0 18 C0 12.06 0 6.12 0 0 Z " fill="#000000" transform="translate(290,460)"/>
<path d="M0 0 C32.67 0 65.34 0 99 0 C99 5.94 99 11.88 99 18 C66.33 18 33.66 18 0 18 C0 12.06 0 6.12 0 0 Z " fill="#000000" transform="translate(326,494)"/>
<path d="M0 0 C5.94 0 11.88 0 18 0 C18 5.94 18 11.88 18 18 C12.06 18 6.12 18 0 18 C0 12.06 0 6.12 0 0 Z " fill="#000000" transform="translate(51,477)"/>
<path d="M0 0 C5.94 0 11.88 0 18 0 C18 5.94 18 11.88 18 18 C12.06 18 6.12 18 0 18 C0 12.06 0 6.12 0 0 Z " fill="#000000" transform="translate(102,460)"/>
</svg>
